<svg xmlns="http://www.w3.org/2000/svg" xmlns:xlink="http://www.w3.org/1999/xlink" width="385.757" height="848.387" viewBox="0 0 385.757 848.387"><defs><filter id="a" x="173.655" y="0" width="212.102" height="316.161" filterUnits="userSpaceOnUse"><feOffset dy="3" input="SourceAlpha"/><feGaussianBlur stdDeviation="3" result="b"/><feFlood flood-opacity="0.161"/><feComposite operator="in" in2="b"/><feComposite in="SourceGraphic"/></filter><filter id="c" x="6.616" y="43.446" width="197.448" height="204.331" filterUnits="userSpaceOnUse"><feOffset dy="3" input="SourceAlpha"/><feGaussianBlur stdDeviation="3" result="d"/><feFlood flood-opacity="0.161"/><feComposite operator="in" in2="d"/><feComposite in="SourceGraphic"/></filter><filter id="e" x="90.702" y="737.671" width="79.603" height="110.715" filterUnits="userSpaceOnUse"><feOffset dy="3" input="SourceAlpha"/><feGaussianBlur stdDeviation="3" result="f"/><feFlood flood-opacity="0.161"/><feComposite operator="in" in2="f"/><feComposite in="SourceGraphic"/></filter><filter id="g" x="2.425" y="204.696" width="111.546" height="163.261" filterUnits="userSpaceOnUse"><feOffset dy="3" input="SourceAlpha"/><feGaussianBlur stdDeviation="3" result="h"/><feFlood flood-opacity="0.161"/><feComposite operator="in" in2="h"/><feComposite in="SourceGraphic"/></filter><filter id="i" x="215.56" y="765.996" width="81.731" height="76.388" filterUnits="userSpaceOnUse"><feOffset dy="3" input="SourceAlpha"/><feGaussianBlur stdDeviation="3" result="j"/><feFlood flood-opacity="0.161"/><feComposite operator="in" in2="j"/><feComposite in="SourceGraphic"/></filter><filter id="k" x="177.694" y="613.19" width="101.697" height="115.516" filterUnits="userSpaceOnUse"><feOffset dy="3" input="SourceAlpha"/><feGaussianBlur stdDeviation="3" result="l"/><feFlood flood-opacity="0.161"/><feComposite operator="in" in2="l"/><feComposite in="SourceGraphic"/></filter><filter id="m" x="124.351" y="244.149" width="72.388" height="82.994" filterUnits="userSpaceOnUse"><feOffset dy="3" input="SourceAlpha"/><feGaussianBlur stdDeviation="3" result="n"/><feFlood flood-opacity="0.161"/><feComposite operator="in" in2="n"/><feComposite in="SourceGraphic"/></filter><filter id="o" x="41.255" y="566.578" width="105.507" height="126.594" filterUnits="userSpaceOnUse"><feOffset dy="3" input="SourceAlpha"/><feGaussianBlur stdDeviation="3" result="p"/><feFlood flood-opacity="0.161"/><feComposite operator="in" in2="p"/><feComposite in="SourceGraphic"/></filter><filter id="q" x="247.64" y="229.457" width="94.028" height="114.131" filterUnits="userSpaceOnUse"><feOffset dy="3" input="SourceAlpha"/><feGaussianBlur stdDeviation="3" result="r"/><feFlood flood-opacity="0.161"/><feComposite operator="in" in2="r"/><feComposite in="SourceGraphic"/></filter><filter id="s" x="0" y="674.228" width="147.189" height="114.343" filterUnits="userSpaceOnUse"><feOffset dy="3" input="SourceAlpha"/><feGaussianBlur stdDeviation="3" result="t"/><feFlood flood-opacity="0.161"/><feComposite operator="in" in2="t"/><feComposite in="SourceGraphic"/></filter></defs><g transform="translate(-37.958 6)"><g transform="matrix(1, 0, 0, 1, 37.96, -6)" filter="url(#a)"><path d="M1299.474,0c-5.037,298.863,99.061,140.334,127.6,155.445S1493.4,298.161,1493.4,298.161L1492.685,0Z" transform="translate(-1116.64 6)" fill="#272626"/></g><g transform="translate(-1 -14)"><g transform="matrix(1, 0, 0, 1, 38.96, 8)" filter="url(#c)"><text transform="translate(41.04 152) rotate(42)" fill="#0e3230" font-size="150" font-family="Consolas-Bold, Consolas" font-weight="700"><tspan x="0" y="0">&lt;</tspan></text></g><g transform="matrix(1, 0, 0, 1, 38.96, 8)" filter="url(#e)"><text transform="translate(117.04 819) rotate(-15)" fill="rgba(255,0,204,0.17)" font-size="73" font-family="Consolas-Bold, Consolas" font-weight="700"><tspan x="0" y="0">;</tspan></text></g><g transform="matrix(1, 0, 0, 1, 38.96, 8)" filter="url(#g)"><text transform="matrix(0.97, 0.24, -0.24, 0.97, 18.44, 312.58)" fill="#37410e" font-size="114" font-family="Consolas"><tspan x="0" y="0">{</tspan></text></g><g transform="matrix(1, 0, 0, 1, 38.96, 8)" filter="url(#i)"><text transform="translate(252.04 780) rotate(128)" fill="rgba(205,255,0,0.2)" font-size="50" font-family="Consolas"><tspan x="0" y="0">{</tspan></text></g><g transform="matrix(1, 0, 0, 1, 38.96, 8)" filter="url(#k)"><text transform="matrix(-0.84, -0.54, 0.54, -0.84, 260.04, 658)" fill="#370e0e" font-size="76" font-family="Consolas-Bold, Consolas" font-weight="700"><tspan x="0" y="0">(</tspan></text></g><g transform="matrix(1, 0, 0, 1, 38.96, 8)" filter="url(#m)"><text transform="matrix(0.86, -0.52, 0.52, 0.86, 157.04, 304)" fill="rgba(255,0,0,0.16)" font-size="50" font-family="Consolas"><tspan x="0" y="0">(</tspan></text></g><g transform="matrix(1, 0, 0, 1, 38.96, 8)" filter="url(#o)"><text transform="matrix(-0.88, -0.47, 0.47, -0.88, 127.9, 613.18)" fill="rgba(11,103,97,0.39)" font-size="84" font-family="Consolas-Bold, Consolas" font-weight="700"><tspan x="0" y="0">&lt;</tspan></text></g><g transform="matrix(1, 0, 0, 1, 38.96, 8)" filter="url(#q)"><text transform="translate(324.04 271) rotate(-153)" fill="#162d0f" font-size="74" font-family="Consolas"><tspan x="0" y="0">[</tspan></text></g><g transform="matrix(1, 0, 0, 1, 38.96, 8)" filter="url(#s)"><text transform="translate(32.01 716.18) rotate(67)" fill="rgba(66,255,0,0.12)" font-size="100" font-family="Consolas"><tspan x="0" y="0">[</tspan></text></g></g></g></svg>