<svg xmlns="http://www.w3.org/2000/svg" width="20" height="20" viewBox="0 0 20 20">
  <path id="Icon_awesome-github-square" data-name="Icon awesome-github-square" d="M17.857,2.25H2.143A2.143,2.143,0,0,0,0,4.393V20.107A2.143,2.143,0,0,0,2.143,22.25H17.857A2.143,2.143,0,0,0,20,20.107V4.393A2.143,2.143,0,0,0,17.857,2.25ZM12.379,19.379c-.375.067-.513-.165-.513-.357,0-.241.009-1.473.009-2.469a1.739,1.739,0,0,0-.5-1.371c1.652-.183,3.393-.411,3.393-3.263A2.292,2.292,0,0,0,14,10.179a2.792,2.792,0,0,0-.076-2.009c-.621-.192-2.04.8-2.04.8a7.023,7.023,0,0,0-3.714,0s-1.42-.991-2.04-.8a2.771,2.771,0,0,0-.076,2.009,2.242,2.242,0,0,0-.7,1.741c0,2.839,1.665,3.08,3.317,3.263a1.618,1.618,0,0,0-.473,1,1.566,1.566,0,0,1-2.156-.621,1.555,1.555,0,0,0-1.138-.763c-.723-.009-.049.455-.049.455.482.223.821,1.08.821,1.08.433,1.326,2.5.879,2.5.879,0,.621.009,1.629.009,1.813s-.134.424-.513.357A7.406,7.406,0,0,1,2.67,12.312,7.085,7.085,0,0,1,9.9,5.1a7.243,7.243,0,0,1,7.42,7.21A7.338,7.338,0,0,1,12.379,19.379ZM8,16.652c-.085.018-.165-.018-.174-.076s.049-.125.134-.143.165.027.174.085S8.089,16.634,8,16.652Zm-.424-.04c0,.058-.067.107-.156.107s-.165-.04-.165-.107.067-.107.156-.107S7.576,16.545,7.576,16.612Zm-.612-.049c-.018.058-.107.085-.183.058s-.143-.085-.125-.143.107-.085.183-.067S6.987,16.5,6.964,16.562Zm-.549-.241c-.04.049-.125.04-.192-.027s-.085-.143-.04-.183.125-.04.192.027S6.455,16.286,6.415,16.321Zm-.406-.406c-.04.027-.116,0-.165-.067s-.049-.143,0-.174.125-.009.165.058a.131.131,0,0,1,0,.183Zm-.29-.433c-.04.04-.107.018-.156-.027S5.5,15.33,5.545,15.3s.107-.018.156.027S5.759,15.451,5.719,15.482Zm-.3-.33a.084.084,0,0,1-.125.018c-.058-.027-.085-.076-.067-.116a.105.105,0,0,1,.125-.018C5.411,15.067,5.437,15.116,5.42,15.152Z" transform="translate(0 -2.25)" fill="#fff"/>
</svg>
