<?xml version="1.0" standalone="no"?>
<!DOCTYPE svg PUBLIC "-//W3C//DTD SVG 20010904//EN"
 "http://www.w3.org/TR/2001/REC-SVG-20010904/DTD/svg10.dtd">
<svg version="1.0" xmlns="http://www.w3.org/2000/svg"
 width="1500.000000pt" height="1500.000000pt" viewBox="0 0 1500.000000 1500.000000"
 preserveAspectRatio="xMidYMid meet">
<metadata>
Created by potrace 1.11, written by Peter Selinger 2001-2013
</metadata>
<g transform="translate(0.000000,1500.000000) scale(0.100000,-0.100000)"
fill="#000000" stroke="none">
<path d="M0 7500 l0 -7500 7500 0 7500 0 0 7500 0 7500 -7500 0 -7500 0 0
-7500z m5585 2188 c472 -810 946 -1624 1054 -1810 108 -185 197 -335 198 -334
2 1 -163 383 -367 849 l-369 847 364 624 c200 344 381 651 403 683 137 201
379 332 614 333 276 0 513 -126 657 -352 31 -47 241 -404 466 -792 226 -388
413 -705 416 -706 3 0 284 477 624 1060 339 583 620 1062 624 1064 4 3 187
-100 407 -228 219 -127 515 -299 656 -381 142 -83 258 -153 258 -157 0 -3
-570 -984 -1266 -2180 -697 -1195 -1269 -2177 -1272 -2183 -17 -32 72 82 498
638 260 340 477 616 481 615 8 -3 1544 -2633 1555 -2663 3 -8 -224 -145 -651
-394 -361 -209 -660 -381 -663 -381 -4 0 -286 480 -627 1065 -472 811 -622
1062 -631 1052 -6 -6 -197 -331 -424 -722 -227 -390 -434 -741 -460 -780 -57
-85 -167 -190 -243 -234 -74 -42 -174 -76 -270 -91 -254 -41 -560 74 -711 266
-24 31 -243 398 -487 816 -243 417 -446 755 -450 751 -4 -5 -283 -480 -619
-1058 -337 -577 -616 -1054 -620 -1059 -5 -5 -303 163 -669 375 l-660 384 23
40 c13 22 390 668 837 1435 447 767 813 1404 813 1415 1 11 -374 664 -832
1450 -458 787 -833 1434 -833 1439 -1 8 1294 773 1312 775 4 1 393 -662 864
-1471z"/>
<path d="M7183 8052 c-171 -295 -313 -542 -315 -549 -2 -6 139 -255 312 -552
239 -411 317 -538 326 -528 6 6 149 250 318 541 260 447 306 532 298 550 -12
28 -612 1059 -620 1068 -4 4 -147 -235 -319 -530z"/>
</g>
</svg>
